PathFileType	4	(X/Y/Z)	RBDS023\RBDS023runT25.trc
DataRate	CameraRate	NumFrames	NumMarkers	Units	OrigDataRate	OrigDataStartFrame	OrigNumFrames
150.000000	150.000000	4	33	mm	150.000000	0	4500
Frame#	Time	L.ASIS			L.Heel.Bottom			L.Heel.Lateral			L.Heel.Top			L.Iliac.Crest			L.MT1			L.MT5			L.PSIS			L.Shank.Bottom.Lateral			L.Shank.Bottom.Medial			L.Shank.Top.Lateral			L.Shank.Top.Medial			L.Thigh.Bottom.Lateral			L.Thigh.Bottom.Medial			L.Thigh.Top.Lateral			L.Thigh.Top.Medial			R.ASIS			R.ASY			R.Heel.Bottom			R.Heel.Lateral			R.Heel.Top			R.Iliac.Crest			R.MT1			R.MT5			R.PSIS			R.Shank.Bottom.Lateral			R.Shank.Bottom.Medial			R.Shank.Top.Lateral			R.Shank.Top.Medial			R.Thigh.Bottom.Lateral			R.Thigh.Bottom.Medial			R.Thigh.Top.Lateral			R.Thigh.Top.Medial			
		X1	Y1	Z1	X2	Y2	Z2	X3	Y3	Z3	X4	Y4	Z4	X5	Y5	Z5	X6	Y6	Z6	X7	Y7	Z7	X8	Y8	Z8	X9	Y9	Z9	X10	Y10	Z10	X11	Y11	Z11	X12	Y12	Z12	X13	Y13	Z13	X14	Y14	Z14	X15	Y15	Z15	X16	Y16	Z16	X17	Y17	Z17	X18	Y18	Z18	X19	Y19	Z19	X20	Y20	Z20	X21	Y21	Z21	X22	Y22	Z22	X23	Y23	Z23	X24	Y24	Z24	X25	Y25	Z25	X26	Y26	Z26	X27	Y27	Z27	X28	Y28	Z28	X29	Y29	Z29	X30	Y30	Z30	X31	Y31	Z31	X32	Y32	Z32	X33	Y33	Z33	

1	0	2280.011634041213	999.8742957983512	907.4028131966254	1853.222363254687	63.89404328793734	1009.371907163422	1882.904055175296	77.74380035778351	968.7725631398738	1871.739297374878	107.4663772565831	1009.589791285571	2213.457017765593	1070.148262463001	861.3767670285156	2073.218960302834	36.78982495340286	1049.179575735216	2037.798099959129	36.50623635064428	935.9773549593556	2104.931372001576	1046.696555043141	969.9506215274617	1983.467611914191	171.2671912595931	945.690715535243	1943.710123098945	193.8082913849913	968.1667411816668	2012.745467796108	242.3848793134987	920.1426622142831	1973.907447050925	269.0391273869986	944.9904453132119	2176.71404082834	646.4843600408011	861.490941036581	2115.499499570259	650.0882417294857	897.5390630761244	2170.837250298118	755.4836419722806	846.4946431575681	2113.741602693981	759.666323373871	883.6342925099201	2289.772520861425	1002.734587809336	1121.708152478524	2128.697508959394	171.8282314705146	1084.338477007061	1956.30453307025	274.8462549382405	1071.001104498388	1991.972702406463	269.7592870417011	1114.14227839238	1998.581161826145	298.2837790485476	1066.699017583256	2220.318597822473	1085.052264645556	1169.054262205825	2109.429771741859	112.2664802913902	1043.64830442854	2092.510079192087	141.0243317438396	1153.147786796176	2110.535095655625	1048.614332306926	1077.667535066718	2118.538619274836	311.575009722333	1126.959082467449	2087.399137126115	348.2494357187756	1098.824005208808	2171.73222062867	371.6270116475059	1142.137984642185	2141.688010047497	405.339216204541	1112.936489880467	2340.504106263581	634.5603205390811	1167.629663900243	2288.966121098449	609.4177604806283	1121.54965247825	2278.701149243895	723.6090368784312	1183.218520368623	2229.788605081073	699.3200975436858	1140.119637363853	
2	0.006666666666666667	2281.85853212776	1004.622146094114	907.571547269595	1839.779782082338	72.80716530545654	1009.156819351618	1869.861259370762	84.98538352440475	968.4482248119575	1859.953200346183	115.5558015469889	1008.97300836899	2217.661130781907	1075.34627453684	860.7611288973272	2057.266666320837	36.66663071248082	1048.823214361518	2021.964988144782	36.70101358327904	935.8931102351838	2106.80080292998	1052.379263232199	969.1258474144928	1971.050080680002	177.7559359683099	945.0109867766824	1931.561723333544	200.0062322992671	968.2106332702651	2000.105720024545	249.0778673906637	919.8847106181023	1961.425562099186	275.4674148504262	945.2782180528887	2169.094123382108	652.5264847406041	862.8609705561925	2108.377974873475	658.2056345438521	899.2516738148391	2166.394554256514	761.3851052564601	847.5115066263659	2109.752349239497	767.5170800856446	884.8690986908537	2291.405329689818	1008.826713364248	1121.304352594726	2151.257637489252	164.8504760574829	1082.442512104222	1973.859784426855	257.2377204472672	1068.64338743244	2009.166507235025	254.2743216166923	1111.904386515484	2014.366560694876	283.1240369402741	1064.379610541789	2221.712302257722	1091.649426725466	1168.581424183242	2136.152329299105	104.579102259189	1041.752121763365	2117.042278806846	132.1808191248236	1151.208702739684	2112.282476865214	1054.676629426078	1077.214476972714	2133.175763499165	303.3062731646499	1125.126224288994	2100.357579549072	338.1120980309412	1096.76725871385	2182.669630457901	365.975841967106	1140.758247673687	2151.109368226048	397.9864554518684	1111.28854761466	2342.648331350148	640.9110097287543	1167.01064304645	2291.758040968999	615.996201622975	1120.144921855011	2280.367485846355	729.6905505814188	1182.60233554857	2231.970099460071	705.5572930563746	1138.875660162135	
3	0.01333333333333333	2283.753385674292	1009.392728257833	907.7489227646317	1826.589731804932	81.90578278196519	1008.941060052011	1857.059008030897	92.39481690814669	968.127008043296	1848.437562730189	123.7788727547783	1008.375341076215	2221.832982931256	1080.606849141235	860.1957248099692	2041.434990507795	36.5777626036619	1048.456517365129	2006.242632524155	37.00911787392131	935.7809701011366	2108.696638207712	1058.055800230161	968.3432779182089	1958.845666797745	184.2992347960677	944.3220803084087	1919.63557451633	206.2490254850757	968.259711867502	1987.655613536822	255.8315071283019	919.6183064606931	1949.15694460363	281.9464139411951	945.5856904996014	2161.623785559845	658.5935471207678	864.1629019770338	2101.411298922808	666.3129950210059	900.8936980928171	2162.081974585804	767.3045068049059	848.4874197546113	2105.894175561133	775.3476726328171	886.0597141547102	2293.047069012843	1014.867284481238	1120.913906933022	2173.947402337887	158.0129008353202	1080.514550998197	1991.718779184871	239.6348183284026	1066.209933422577	2026.63113028744	238.7950467060836	1109.606790322224	2030.413109821593	267.947940139738	1062.005424094722	2223.102358762072	1098.225399770012	1168.109537202079	2163.023523416314	97.10964310356302	1039.818972957437	2141.722478632204	123.4877718843389	1149.223536871811	2114.057102886602	1060.701664321637	1076.772829438286	2147.938850937055	295.0075944841842	1123.262993177294	2113.456443166296	327.9288527583759	1094.701089134728	2193.699021558366	360.2354359321432	1139.35870243411	2160.623615046835	390.5287258878452	1109.645952917522	2344.59453810682	647.1189129081822	1166.337439589749	2294.287235749575	622.4241007486073	1118.765242463622	2281.910932371561	735.6812323693194	1181.920119553067	2233.976843588767	711.700537104637	1137.627766137179	
4	0.02	2285.740867932023	1014.212116391879	907.940375760096	1813.885769545876	91.35059138147571	1008.734697075718	1844.715381905455	100.1163941928699	967.8208363338002	1837.441291790646	132.2483445543761	1007.820543818902	2225.946466283156	1085.997736303808	859.7299081148903	2025.827930592922	36.55230417910603	1048.073738028914	1990.719563466903	37.52499898701198	935.6228125033257	2110.64853323816	1063.726418432791	967.6341444761408	1947.0408112855	190.9322809327139	943.621009971563	1908.124811190791	212.5660339188067	968.3200215993161	1975.56024502089	262.6927151329135	919.337726170426	1937.284170862544	288.5127673599008	945.9295666643983	2154.432405319351	664.7210333797283	865.3308513144807	2094.735615808283	674.4175701724693	902.3990451253733	2158.016277131667	773.2683942479172	849.3765661774152	2102.286196693585	783.1536968371798	887.1587698672445	2294.708572432667	1020.811022225669	1120.548335629231	2196.927724959593	151.4604026872055	1078.51793716461	2010.212429498034	222.0464204914136	1063.636042478294	2044.67067750787	223.3264038905747	1107.19695023401	2047.007519353943	252.7421290683673	1059.532885033588	2224.484178794058	1104.76281386409	1167.638853620267	2190.22095197914	90.08456202301984	1037.798733640664	2166.743590112651	115.0932204583397	1147.137717584611	2115.887891291673	1066.66357064408	1076.349747147932	2162.976212181653	286.6564539680032	1121.345340799774	2126.85796016038	317.6548391499442	1092.619152355973	2204.925750057131	354.3263938464784	1137.926004773669	2170.338010818288	382.8637341427911	1108.017694739423	2346.160751618902	653.0489673288188	1165.577463986533	2296.313019248207	628.5594160276082	1117.449089413042	2283.219162848894	741.4935772756037	1181.126946640564	2235.649467392535	717.6612872300991	1136.386745816487	
